<svg width="19" height="20" viewBox="0 0 19 20" fill="none" xmlns="http://www.w3.org/2000/svg">
<path d="M9.27895 20C9.2142 20 9.14939 19.99 9.08697 19.97C6.98891 19.2979 5.20269 18.0089 3.77782 16.1386C2.65605 14.6662 1.75785 12.8336 1.1083 10.6917C0.0125844 7.07909 0 3.86077 0 3.72555C0 3.4015 0.24615 3.13037 0.56875 3.09923C0.617325 3.09451 5.50421 2.59283 8.90922 0.12007C9.1297 -0.0401283 9.42826 -0.0399396 9.64874 0.120133C13.0528 2.59283 17.9403 3.09451 17.9893 3.09929C18.3116 3.13075 18.5577 3.40176 18.5577 3.72555C18.5577 3.86077 18.5451 7.07909 17.4495 10.6918C16.7999 12.8337 15.9017 14.6663 14.7799 16.1387C13.3551 18.0089 11.5689 19.298 9.47086 19.9701C9.40844 19.99 9.34369 20 9.27895 20ZM1.27649 4.27756C1.32878 5.33364 1.53208 7.76582 2.32125 10.3552C3.66809 14.774 6.00853 17.5831 9.27888 18.7079C12.5569 17.5805 14.9 14.762 16.2451 10.3265C17.029 7.7421 17.2301 5.32842 17.2816 4.27763C15.8719 4.07194 12.2203 3.37583 9.27882 1.39675C6.3371 3.37564 2.68626 4.07187 1.27649 4.27756Z" fill="url(#paint0_linear_64_125)"/>
<path d="M8.94249 13.0642C8.79324 13.0642 8.64801 13.0111 8.53356 12.9132L6.25812 10.9673C5.99404 10.7414 5.96301 10.3443 6.18884 10.0801C6.4146 9.816 6.81183 9.78491 7.07598 10.0109L8.84559 11.5242L12.353 6.92348C12.5637 6.64713 12.9585 6.59377 13.2349 6.80456C13.5113 7.01522 13.5645 7.41006 13.3538 7.68641L9.4429 12.8164C9.33801 12.954 9.18115 13.0424 9.00906 13.0607C8.98685 13.063 8.96464 13.0642 8.94249 13.0642Z" fill="url(#paint1_linear_64_125)"/>
<defs>
<linearGradient id="paint0_linear_64_125" x1="9.27885" y1="0" x2="9.27885" y2="20" gradientUnits="userSpaceOnUse">
<stop stop-color="#0183FF"/>
<stop offset="1" stop-color="#9747FF"/>
</linearGradient>
<linearGradient id="paint1_linear_64_125" x1="9.76026" y1="6.67566" x2="9.76026" y2="13.0642" gradientUnits="userSpaceOnUse">
<stop stop-color="#0183FF"/>
<stop offset="1" stop-color="#9747FF"/>
</linearGradient>
</defs>
</svg>
