<svg width="16" height="20" viewBox="0 0 16 20" fill="none" xmlns="http://www.w3.org/2000/svg">
<path d="M15.0372 3.99189V3.97163L11.1871 0.101317L11.1669 0.0810537C11.1669 0.0810537 11.1466 0.0810537 11.1466 0.0607903C11.1466 0.0607903 11.1263 0.0607903 11.1263 0.0405268C11.0655 0 11.0047 0 10.9237 0H1.37962C0.994614 0 0.650136 0.162107 0.406975 0.405268C0.163814 0.64843 0.00170641 1.01317 0.00170641 1.37791V18.6221C-0.018557 18.9868 0.14355 19.3313 0.386711 19.5947C0.650136 19.8379 0.994614 20 1.35936 20H13.6998C14.0645 20 14.409 19.8582 14.6522 19.615L14.6724 19.5947C14.9156 19.3516 15.0777 18.9868 15.0777 18.6221V4.19453C15.0777 4.11348 15.0574 4.05269 15.0372 3.99189ZM11.2884 1.45897H11.3087L13.5985 3.74873H11.9166C11.7545 3.74873 11.6126 3.68794 11.4911 3.58663L11.4708 3.56636C11.3695 3.46505 11.2884 3.30294 11.2884 3.14083V1.45897ZM14.2266 18.6018C14.2266 18.7437 14.1658 18.8652 14.0645 18.9666L14.0443 18.9868C13.9429 19.0679 13.8214 19.1287 13.6998 19.1287H1.37962C1.23778 19.1287 1.11619 19.0679 1.01488 18.9868C0.91356 18.8855 0.873034 18.7639 0.873034 18.6221V1.35765H0.85277C0.85277 1.21581 0.913561 1.09422 0.994614 0.992908C1.09593 0.891591 1.21751 0.851064 1.35936 0.851064H10.4374V3.14083C10.4374 3.5461 10.5995 3.91084 10.8832 4.19453L10.9034 4.21479C11.1669 4.47822 11.5316 4.62006 11.9166 4.62006H14.2266V18.6018Z" fill="url(#paint0_linear_64_133)"/>
<defs>
<linearGradient id="paint0_linear_64_133" x1="7.53885" y1="0" x2="7.53885" y2="20" gradientUnits="userSpaceOnUse">
<stop stop-color="#0183FF"/>
<stop offset="1" stop-color="#9747FF"/>
</linearGradient>
</defs>
</svg>
