<svg width="20" height="20" viewBox="0 0 20 20" fill="none" xmlns="http://www.w3.org/2000/svg">
<g clip-path="url(#clip0_64_102)">
<path d="M15.981 9.20197L15.8381 7.35255C15.8255 6.60017 15.2118 5.9907 14.4552 5.9907C14.224 5.9907 14.0013 6.04955 13.8121 6.15042C13.5767 5.78474 13.1774 5.54936 12.6983 5.54936C12.4797 5.54936 12.2737 5.5998 12.0888 5.68807C11.8366 5.3392 11.4289 5.10802 10.9623 5.10802C10.8446 5.10802 10.7312 5.12484 10.6219 5.15846V3.26701C10.6219 2.42216 10.0418 1.78748 9.26844 1.78748C8.34373 1.78748 7.86036 2.52304 7.85195 3.2502L7.55772 8.51684C7.49468 9.71896 7.37278 10.1981 7.29712 10.3789C7.22987 10.3284 7.12479 10.2444 6.96507 10.0846C6.2211 9.34067 5.45611 8.94977 4.85925 9.00862C4.54821 9.03804 4.28761 9.18936 4.12369 9.43735C3.52263 10.341 4.05223 10.9967 4.67011 11.7575C4.84664 11.9761 5.0442 12.2199 5.25856 12.5099C5.4393 12.7537 5.60743 12.9933 5.77135 13.2245C6.41865 14.1408 6.99029 14.9436 7.7847 15.5404C7.7889 16.1961 7.7889 16.6459 7.7847 17.1124C7.7847 17.352 7.7847 17.6 7.7847 17.8816C7.7847 18.117 7.86456 18.4743 8.24285 18.8526C8.94479 19.5503 10.3487 20.0001 11.824 20.0001C11.8366 20.0001 11.8534 20.0001 11.866 20.0001C12.8664 19.9958 13.8205 19.7941 14.5561 19.4326C15.3799 19.0291 15.8339 18.4785 15.8297 17.8816C15.8297 17.806 15.8297 14.7965 15.8297 14.5317C15.9306 14.166 16.1155 13.1236 16.1239 12.5099V12.3796C16.1575 10.5764 16.1533 10.547 15.981 9.20197ZM14.8209 17.8858C14.8251 18.0077 14.636 18.2725 14.1148 18.5289C13.5137 18.8232 12.7151 18.9871 11.8618 18.9913C10.458 18.9997 9.37352 18.5541 8.9532 18.138C8.83551 18.0203 8.79347 17.9279 8.79347 17.8816C8.79347 17.6 8.79347 17.3562 8.79347 17.1166C8.79347 16.7131 8.79347 16.3222 8.79347 15.7968C9.7392 16.3054 10.7059 16.524 11.9627 16.524H11.9669C13.1732 16.524 14.1021 16.276 14.8209 15.7548C14.8209 16.6963 14.8209 17.8396 14.8209 17.8858ZM15.1235 12.367V12.4973C15.1193 12.8504 15.0857 13.2076 15.0269 13.5565C15.0142 13.628 14.8293 14.5148 14.8377 14.5148H14.8251C14.8251 14.5148 14.8251 14.6493 14.8251 14.8637C14.1862 15.5446 13.2867 15.8515 11.9711 15.8515C11.9669 15.8515 11.9669 15.8515 11.9669 15.8515C10.6471 15.8515 9.71398 15.6035 8.73883 14.9814C8.71361 14.9562 8.68839 14.9352 8.65897 14.9184C7.85615 14.414 7.27191 13.5901 6.59939 12.6402C6.43126 12.4048 6.25893 12.161 6.07399 11.9088C5.84701 11.5978 5.64105 11.3456 5.45611 11.1186C4.80881 10.32 4.80461 10.2402 4.95593 10.009C5.08623 9.98377 5.57801 10.1183 6.25472 10.795C6.54054 11.0808 7.07435 11.6146 7.66281 11.3876C8.23444 11.1691 8.46982 10.4293 8.5707 8.56728L8.86493 3.28803C8.86493 3.27962 8.86493 3.27121 8.86493 3.2586C8.86493 3.11569 8.90276 2.78784 9.27264 2.78784C9.6131 2.78784 9.63832 3.26701 9.63832 3.28803L9.65934 9.08848C9.65934 9.36589 9.80645 9.62649 10.0839 9.62649C10.3613 9.62649 10.5883 9.39952 10.5883 9.1221C10.5883 8.18899 10.5883 7.33153 10.5883 6.39841C10.5925 6.23869 10.7606 6.10839 10.9623 6.10839C11.1725 6.10839 11.3364 6.18825 11.3364 6.39841V6.9028V8.41596V9.25661C11.3364 9.53402 11.534 9.7736 11.8156 9.7736C12.0972 9.7736 12.32 9.54663 12.32 9.26922L12.3452 6.78511C12.3998 6.6464 12.5343 6.54973 12.6941 6.54973C12.9042 6.54973 13.0682 6.71366 13.0682 6.92382V9.1221V9.56344C13.0682 9.84086 13.2951 10.0678 13.5725 10.0678C13.85 10.0678 14.0265 9.87448 14.0265 9.59287V9.08848V7.36516C14.0265 7.155 14.2409 6.98687 14.451 6.98687C14.6612 6.98687 14.8251 7.15079 14.8251 7.36095C14.8251 7.37356 14.8251 7.38617 14.8251 7.39878C14.9008 8.35712 14.9722 9.31125 15.0479 10.2696C15.1025 10.9799 15.1319 11.6651 15.1235 12.367Z" fill="url(#paint0_linear_64_102)"/>
<path d="M6.86841 2.0354H5.35945C5.17451 2.0354 5.02319 2.18672 5.02319 2.37166C5.02319 2.5566 5.17451 2.70792 5.35945 2.70792H6.86841C7.05335 2.70792 7.20467 2.5566 7.20467 2.37166C7.20467 2.18672 7.05335 2.0354 6.86841 2.0354Z" fill="url(#paint1_linear_64_102)"/>
<path d="M7.55339 3.03154C7.42309 2.89704 7.21293 2.89704 7.07843 3.03154L5.75861 4.34715C5.62831 4.47745 5.62831 4.69182 5.75861 4.82212C5.82587 4.88937 5.90993 4.91879 5.9982 4.91879C6.08226 4.91879 6.17053 4.88516 6.23778 4.82212L7.55339 3.50651C7.68369 3.37621 7.68369 3.16184 7.55339 3.03154Z" fill="url(#paint2_linear_64_102)"/>
<path d="M7.55355 1.27043L6.37664 0.097725C6.24634 -0.032575 6.03198 -0.032575 5.90168 0.097725C5.77138 0.228025 5.77138 0.44239 5.90168 0.57269L7.07438 1.74539C7.14163 1.81264 7.2257 1.84206 7.31396 1.84206C7.39803 1.84206 7.4863 1.80844 7.55355 1.74539C7.68385 1.61509 7.68385 1.40073 7.55355 1.27043Z" fill="url(#paint3_linear_64_102)"/>
<path d="M13.0723 2.0354H11.5633C11.3784 2.0354 11.2271 2.18672 11.2271 2.37166C11.2271 2.5566 11.3784 2.70792 11.5633 2.70792H13.0723C13.2572 2.70792 13.4085 2.5566 13.4085 2.37166C13.4085 2.18672 13.2572 2.0354 13.0723 2.0354Z" fill="url(#paint4_linear_64_102)"/>
<path d="M12.6813 0.097725C12.551 -0.032575 12.3367 -0.032575 12.2064 0.097725L10.8865 1.41754C10.7562 1.54784 10.7562 1.7622 10.8865 1.8925C10.9496 1.95975 11.0379 1.98918 11.1219 1.98918C11.206 1.98918 11.2943 1.95555 11.3615 1.8925L12.6813 0.572689C12.8116 0.44239 12.8116 0.228025 12.6813 0.097725Z" fill="url(#paint5_linear_64_102)"/>
<path d="M12.5386 4.35136L11.3659 3.17866C11.2356 3.04836 11.0212 3.04836 10.8909 3.17866C10.7606 3.30896 10.7606 3.52332 10.8909 3.65362L12.0594 4.82632C12.1267 4.89357 12.2108 4.923 12.299 4.923C12.3831 4.923 12.4714 4.88937 12.5386 4.82632C12.6689 4.69602 12.6689 4.48166 12.5386 4.35136Z" fill="url(#paint6_linear_64_102)"/>
</g>
<defs>
<linearGradient id="paint0_linear_64_102" x1="10" y1="1.78748" x2="10" y2="20.0001" gradientUnits="userSpaceOnUse">
<stop stop-color="#0183FF"/>
<stop offset="1" stop-color="#9747FF"/>
</linearGradient>
<linearGradient id="paint1_linear_64_102" x1="6.11393" y1="2.0354" x2="6.11393" y2="2.70792" gradientUnits="userSpaceOnUse">
<stop stop-color="#0183FF"/>
<stop offset="1" stop-color="#9747FF"/>
</linearGradient>
<linearGradient id="paint2_linear_64_102" x1="6.656" y1="2.93066" x2="6.656" y2="4.91879" gradientUnits="userSpaceOnUse">
<stop stop-color="#0183FF"/>
<stop offset="1" stop-color="#9747FF"/>
</linearGradient>
<linearGradient id="paint3_linear_64_102" x1="6.72761" y1="0" x2="6.72761" y2="1.84206" gradientUnits="userSpaceOnUse">
<stop stop-color="#0183FF"/>
<stop offset="1" stop-color="#9747FF"/>
</linearGradient>
<linearGradient id="paint4_linear_64_102" x1="12.3178" y1="2.0354" x2="12.3178" y2="2.70792" gradientUnits="userSpaceOnUse">
<stop stop-color="#0183FF"/>
<stop offset="1" stop-color="#9747FF"/>
</linearGradient>
<linearGradient id="paint5_linear_64_102" x1="11.7839" y1="0" x2="11.7839" y2="1.98918" gradientUnits="userSpaceOnUse">
<stop stop-color="#0183FF"/>
<stop offset="1" stop-color="#9747FF"/>
</linearGradient>
<linearGradient id="paint6_linear_64_102" x1="11.7148" y1="3.08093" x2="11.7148" y2="4.923" gradientUnits="userSpaceOnUse">
<stop stop-color="#0183FF"/>
<stop offset="1" stop-color="#9747FF"/>
</linearGradient>
<clipPath id="clip0_64_102">
<rect width="20" height="20" fill="white"/>
</clipPath>
</defs>
</svg>
