<svg width="80" height="80" viewBox="0 0 80 80" fill="none" xmlns="http://www.w3.org/2000/svg">
<path d="M70 61.1999V64C70 67.3 67.3 70 64 70H16C12.7 70 10 67.3 10 64V61.1999C10 53.8999 18.5 49.5 26.5 46C26.8 45.9 27 45.8 27.3 45.6C27.9 45.3 28.6 45.3 29.2 45.7C32.4 47.8 36.1 49 40 49C43.9 49 47.6 47.8 50.8 45.8C51.4 45.4 52.1 45.4 52.7 45.7C53 45.8 53.2 45.9 53.5 46.1C61.5 49.5 70 53.8999 70 61.1999Z" fill="black"/>
<path d="M40.0001 43C48.2291 43 54.9001 35.6127 54.9001 26.5C54.9001 17.3873 48.2291 10 40.0001 10C31.7711 10 25.1001 17.3873 25.1001 26.5C25.1001 35.6127 31.7711 43 40.0001 43Z" fill="black"/>
</svg>
