<svg width="154" height="51" viewBox="0 0 154 51" fill="none" xmlns="http://www.w3.org/2000/svg">
<rect width="154" height="51" rx="6" fill="white"/>
<path d="M26.2 23V11.672H30.472C31.656 11.672 32.664 11.896 33.496 12.344C34.3387 12.792 34.9787 13.4373 35.416 14.28C35.864 15.1227 36.088 16.152 36.088 17.368C36.088 18.5627 35.8693 19.5813 35.432 20.424C35.0053 21.256 34.376 21.896 33.544 22.344C32.712 22.7813 31.6933 23 30.488 23H26.2ZM28.488 20.888H30.472C31.2613 20.888 31.896 20.7387 32.376 20.44C32.856 20.1413 33.208 19.7253 33.432 19.192C33.656 18.6587 33.768 18.0453 33.768 17.352C33.768 16.68 33.656 16.0773 33.432 15.544C33.2187 15 32.8667 14.5733 32.376 14.264C31.896 13.9547 31.2453 13.8 30.424 13.8H28.488V20.888ZM41.4235 23.112C40.5382 23.112 39.7862 22.936 39.1675 22.584C38.5488 22.232 38.0742 21.736 37.7435 21.096C37.4128 20.4453 37.2475 19.688 37.2475 18.824C37.2475 17.9493 37.4182 17.1867 37.7595 16.536C38.1008 15.8747 38.5808 15.3573 39.1995 14.984C39.8288 14.6107 40.5702 14.424 41.4235 14.424C42.0635 14.424 42.6235 14.5307 43.1035 14.744C43.5942 14.9573 44.0048 15.256 44.3355 15.64C44.6768 16.024 44.9275 16.472 45.0875 16.984C45.2582 17.4853 45.3382 18.0293 45.3275 18.616C45.3275 18.7653 45.3222 18.9093 45.3115 19.048C45.3008 19.1867 45.2795 19.3253 45.2475 19.464H39.4715C39.5035 19.784 39.5942 20.0773 39.7435 20.344C39.8928 20.6107 40.1008 20.824 40.3675 20.984C40.6448 21.1333 40.9862 21.208 41.3915 21.208C41.6582 21.208 41.9035 21.1813 42.1275 21.128C42.3515 21.064 42.5435 20.968 42.7035 20.84C42.8635 20.712 42.9755 20.5627 43.0395 20.392H45.2475C45.1088 21.0213 44.8475 21.5387 44.4635 21.944C44.0902 22.3493 43.6368 22.648 43.1035 22.84C42.5702 23.0213 42.0102 23.112 41.4235 23.112ZM39.5195 17.896H43.1835C43.1728 17.608 43.0982 17.3413 42.9595 17.096C42.8315 16.84 42.6342 16.6373 42.3675 16.488C42.1115 16.328 41.7808 16.248 41.3755 16.248C40.9702 16.248 40.6288 16.328 40.3515 16.488C40.0848 16.648 39.8822 16.856 39.7435 17.112C39.6155 17.3573 39.5408 17.6187 39.5195 17.896ZM48.8506 23L45.8906 14.568H48.3386L50.3546 21.176L52.3546 14.568H54.8186L51.8586 23H48.8506ZM56.0125 23V11.672H58.3005V16.36H63.1965V11.672H65.5005V23H63.1965V18.472H58.3005V23H56.0125ZM71.4071 23.112C70.1698 23.112 69.2151 22.7973 68.5431 22.168C67.8818 21.528 67.5511 20.568 67.5511 19.288V14.568H69.7911V19.128C69.7911 19.512 69.8445 19.8533 69.9511 20.152C70.0685 20.44 70.2445 20.6693 70.4791 20.84C70.7245 21.0107 71.0391 21.096 71.4231 21.096C71.8391 21.096 72.1591 21.0053 72.3831 20.824C72.6071 20.6427 72.7618 20.4027 72.8471 20.104C72.9325 19.7947 72.9751 19.4693 72.9751 19.128V14.568H75.1991V19.288C75.1991 20.6213 74.8631 21.592 74.1911 22.2C73.5298 22.808 72.6018 23.112 71.4071 23.112ZM76.9425 23V14.568H79.0385L79.1505 15.544C79.3852 15.256 79.6518 15.032 79.9505 14.872C80.2598 14.7013 80.5692 14.584 80.8785 14.52C81.1985 14.456 81.4865 14.424 81.7425 14.424C82.5532 14.424 83.1825 14.6 83.6305 14.952C84.0892 15.304 84.4145 15.7787 84.6065 16.376C84.8092 16.9627 84.9105 17.6187 84.9105 18.344V23H82.6705V18.632C82.6705 18.376 82.6492 18.12 82.6065 17.864C82.5638 17.608 82.4838 17.3733 82.3665 17.16C82.2598 16.9467 82.1052 16.776 81.9025 16.648C81.6998 16.52 81.4332 16.456 81.1025 16.456C80.6758 16.456 80.3185 16.5627 80.0305 16.776C79.7425 16.9893 79.5292 17.2773 79.3905 17.64C79.2518 18.0027 79.1825 18.4027 79.1825 18.84V23H76.9425ZM90.454 23C89.75 23 89.158 22.9147 88.678 22.744C88.2087 22.5733 87.8513 22.2853 87.606 21.88C87.3713 21.464 87.254 20.8987 87.254 20.184V16.568H86.006V14.568H87.254V12.312H89.494V14.568H91.334V16.568H89.494V19.864C89.494 20.216 89.558 20.4933 89.686 20.696C89.814 20.8987 90.102 21 90.55 21H91.254V23H90.454ZM93.8654 23.208C93.4814 23.208 93.156 23.0907 92.8894 22.856C92.6227 22.6213 92.4894 22.2853 92.4894 21.848C92.4894 21.4 92.6227 21.048 92.8894 20.792C93.1667 20.536 93.492 20.408 93.8654 20.408C94.2387 20.408 94.5587 20.536 94.8254 20.792C95.092 21.0373 95.2254 21.384 95.2254 21.832C95.2254 22.28 95.092 22.6213 94.8254 22.856C94.5587 23.0907 94.2387 23.208 93.8654 23.208ZM100.925 23.112C100.072 23.112 99.3254 22.9413 98.6854 22.6C98.0454 22.248 97.5494 21.752 97.1974 21.112C96.8454 20.4613 96.6694 19.6933 96.6694 18.808C96.6694 17.9013 96.8454 17.1227 97.1974 16.472C97.56 15.8107 98.0614 15.304 98.7014 14.952C99.3414 14.6 100.077 14.424 100.909 14.424C101.763 14.424 102.504 14.6053 103.133 14.968C103.763 15.3307 104.253 15.8373 104.605 16.488C104.957 17.1387 105.133 17.9173 105.133 18.824C105.133 19.7093 104.957 20.4773 104.605 21.128C104.264 21.768 103.779 22.2587 103.149 22.6C102.531 22.9413 101.789 23.112 100.925 23.112ZM100.893 21.064C101.384 21.064 101.779 20.9573 102.077 20.744C102.376 20.5307 102.589 20.2533 102.717 19.912C102.856 19.56 102.925 19.192 102.925 18.808C102.925 18.424 102.856 18.056 102.717 17.704C102.589 17.352 102.376 17.064 102.077 16.84C101.789 16.6053 101.395 16.488 100.893 16.488C100.413 16.488 100.024 16.6053 99.7254 16.84C99.4267 17.064 99.208 17.352 99.0694 17.704C98.9414 18.056 98.8774 18.424 98.8774 18.808C98.8774 19.2027 98.9414 19.5707 99.0694 19.912C99.208 20.2533 99.4267 20.5307 99.7254 20.744C100.024 20.9573 100.413 21.064 100.893 21.064ZM106.568 23V14.568H108.584L108.728 15.576C108.941 15.256 109.181 15.016 109.448 14.856C109.714 14.6853 109.992 14.5733 110.28 14.52C110.568 14.456 110.861 14.424 111.16 14.424C111.298 14.424 111.426 14.4293 111.544 14.44C111.661 14.44 111.746 14.44 111.8 14.44V16.6H111.272C110.77 16.6 110.333 16.6853 109.96 16.856C109.586 17.0267 109.298 17.2933 109.096 17.656C108.904 18.0187 108.808 18.4827 108.808 19.048V23H106.568ZM116.757 26.904C116.095 26.904 115.487 26.7973 114.933 26.584C114.378 26.3813 113.909 26.056 113.525 25.608C113.141 25.16 112.879 24.584 112.741 23.88H115.029C115.103 24.0933 115.221 24.2693 115.381 24.408C115.551 24.5573 115.754 24.6693 115.989 24.744C116.234 24.8187 116.49 24.856 116.757 24.856C117.258 24.856 117.647 24.7493 117.925 24.536C118.202 24.3227 118.394 24.04 118.501 23.688C118.607 23.3467 118.661 22.968 118.661 22.552V21.96C118.469 22.2693 118.229 22.504 117.941 22.664C117.653 22.824 117.349 22.936 117.029 23C116.719 23.0747 116.421 23.112 116.133 23.112C115.247 23.112 114.527 22.9147 113.973 22.52C113.418 22.1253 113.013 21.608 112.757 20.968C112.501 20.3173 112.373 19.6187 112.373 18.872C112.373 18.0507 112.517 17.304 112.805 16.632C113.093 15.96 113.525 15.4267 114.101 15.032C114.677 14.6373 115.397 14.44 116.261 14.44C116.783 14.44 117.247 14.5253 117.653 14.696C118.058 14.856 118.405 15.096 118.693 15.416L118.885 14.568H120.933V21.928C120.933 22.952 120.799 23.832 120.533 24.568C120.266 25.3147 119.823 25.8907 119.205 26.296C118.597 26.7013 117.781 26.904 116.757 26.904ZM116.629 21.096C117.098 21.096 117.482 20.9893 117.781 20.776C118.09 20.5627 118.319 20.28 118.469 19.928C118.618 19.5653 118.693 19.176 118.693 18.76C118.693 18.3227 118.618 17.9333 118.469 17.592C118.319 17.24 118.095 16.9627 117.797 16.76C117.498 16.5467 117.114 16.44 116.645 16.44C116.133 16.44 115.727 16.5627 115.429 16.808C115.13 17.0427 114.917 17.3413 114.789 17.704C114.671 18.056 114.613 18.4293 114.613 18.824C114.613 19.2293 114.677 19.608 114.805 19.96C114.933 20.3013 115.146 20.5787 115.445 20.792C115.743 20.9947 116.138 21.096 116.629 21.096Z" fill="url(#paint0_linear_71_482)"/>
<path d="M7.36 39V38.124L9.76 36.048C9.976 35.864 10.212 35.664 10.468 35.448C10.732 35.224 10.98 34.984 11.212 34.728C11.452 34.472 11.648 34.2 11.8 33.912C11.96 33.616 12.04 33.304 12.04 32.976C12.04 32.464 11.888 32.072 11.584 31.8C11.28 31.52 10.872 31.38 10.36 31.38C9.952 31.38 9.596 31.464 9.292 31.632C8.988 31.8 8.788 32.044 8.692 32.364H7.576C7.656 31.924 7.836 31.564 8.116 31.284C8.404 30.996 8.748 30.78 9.148 30.636C9.556 30.492 9.976 30.42 10.408 30.42C10.936 30.42 11.4 30.516 11.8 30.708C12.208 30.9 12.524 31.18 12.748 31.548C12.98 31.908 13.096 32.352 13.096 32.88C13.096 33.4 12.996 33.856 12.796 34.248C12.604 34.64 12.348 34.996 12.028 35.316C11.716 35.628 11.38 35.936 11.02 36.24L8.872 38.052H13.192V39H7.36ZM14.6009 39V32.676H15.5849L15.6329 33.636C15.7769 33.404 15.9609 33.212 16.1849 33.06C16.4089 32.908 16.6529 32.796 16.9169 32.724C17.1889 32.644 17.4529 32.604 17.7089 32.604C18.3249 32.604 18.8049 32.732 19.1489 32.988C19.5009 33.244 19.7489 33.592 19.8929 34.032C20.0449 34.464 20.1209 34.956 20.1209 35.508V39H19.1009V35.784C19.1009 35.488 19.0809 35.204 19.0409 34.932C19.0089 34.66 18.9369 34.416 18.8249 34.2C18.7209 33.984 18.5689 33.816 18.3689 33.696C18.1689 33.568 17.9009 33.504 17.5649 33.504C17.1489 33.504 16.7929 33.62 16.4969 33.852C16.2089 34.084 15.9889 34.396 15.8369 34.788C15.6929 35.18 15.6209 35.62 15.6209 36.108V39H14.6009ZM24.2227 39.072C23.5907 39.072 23.0707 38.932 22.6627 38.652C22.2547 38.364 21.9507 37.98 21.7507 37.5C21.5507 37.012 21.4507 36.464 21.4507 35.856C21.4507 35.248 21.5507 34.7 21.7507 34.212C21.9507 33.716 22.2587 33.324 22.6747 33.036C23.0907 32.748 23.6227 32.604 24.2707 32.604C24.5187 32.604 24.7667 32.636 25.0147 32.7C25.2707 32.756 25.5107 32.848 25.7347 32.976C25.9587 33.096 26.1507 33.26 26.3107 33.468V30.516H27.3307V39H26.3587L26.3107 38.052C26.1667 38.292 25.9827 38.488 25.7587 38.64C25.5427 38.784 25.3027 38.892 25.0387 38.964C24.7747 39.036 24.5027 39.072 24.2227 39.072ZM24.3667 38.172C24.7907 38.172 25.1467 38.064 25.4347 37.848C25.7227 37.632 25.9427 37.344 26.0947 36.984C26.2467 36.624 26.3227 36.232 26.3227 35.808C26.3227 35.368 26.2467 34.976 26.0947 34.632C25.9507 34.288 25.7347 34.016 25.4467 33.816C25.1587 33.616 24.7947 33.516 24.3547 33.516C23.8987 33.516 23.5307 33.62 23.2507 33.828C22.9787 34.036 22.7787 34.32 22.6507 34.68C22.5307 35.032 22.4707 35.428 22.4707 35.868C22.4707 36.188 22.5027 36.488 22.5667 36.768C22.6387 37.04 22.7467 37.284 22.8907 37.5C23.0427 37.708 23.2387 37.872 23.4787 37.992C23.7187 38.112 24.0147 38.172 24.3667 38.172ZM32.4073 39V30.516H35.3473C35.9713 30.516 36.5073 30.62 36.9553 30.828C37.4033 31.028 37.7433 31.336 37.9753 31.752C38.2153 32.168 38.3353 32.696 38.3353 33.336C38.3353 33.96 38.1953 34.488 37.9153 34.92C37.6433 35.344 37.2673 35.664 36.7873 35.88C36.3073 36.096 35.7553 36.204 35.1313 36.204H33.4513V39H32.4073ZM33.4513 35.256H35.0833C35.7313 35.256 36.2553 35.104 36.6553 34.8C37.0633 34.488 37.2673 33.984 37.2673 33.288C37.2673 32.68 37.1033 32.224 36.7753 31.92C36.4473 31.616 35.9553 31.464 35.2993 31.464H33.4513V35.256ZM39.7259 39V32.676H40.7099L40.7579 33.66C40.9179 33.412 41.1019 33.212 41.3099 33.06C41.5259 32.908 41.7619 32.796 42.0179 32.724C42.2819 32.644 42.5659 32.604 42.8699 32.604C42.9259 32.604 42.9779 32.604 43.0259 32.604C43.0819 32.604 43.1379 32.604 43.1939 32.604V33.564H42.8219C42.3259 33.564 41.9219 33.672 41.6099 33.888C41.3059 34.096 41.0859 34.38 40.9499 34.74C40.8139 35.092 40.7459 35.484 40.7459 35.916V39H39.7259ZM46.8453 39.072C46.1813 39.072 45.6253 38.936 45.1773 38.664C44.7293 38.384 44.3933 38 44.1693 37.512C43.9533 37.024 43.8453 36.468 43.8453 35.844C43.8453 35.212 43.9573 34.656 44.1813 34.176C44.4053 33.688 44.7413 33.304 45.1893 33.024C45.6373 32.744 46.1973 32.604 46.8693 32.604C47.5333 32.604 48.0853 32.744 48.5253 33.024C48.9733 33.304 49.3053 33.688 49.5213 34.176C49.7453 34.656 49.8573 35.212 49.8573 35.844C49.8573 36.468 49.7453 37.024 49.5213 37.512C49.2973 38 48.9613 38.384 48.5133 38.664C48.0733 38.936 47.5173 39.072 46.8453 39.072ZM46.8453 38.172C47.3093 38.172 47.6853 38.068 47.9733 37.86C48.2693 37.652 48.4853 37.372 48.6213 37.02C48.7653 36.668 48.8373 36.276 48.8373 35.844C48.8373 35.412 48.7653 35.02 48.6213 34.668C48.4853 34.316 48.2693 34.036 47.9733 33.828C47.6853 33.62 47.3093 33.516 46.8453 33.516C46.3893 33.516 46.0133 33.62 45.7173 33.828C45.4293 34.036 45.2133 34.316 45.0693 34.668C44.9333 35.02 44.8652 35.412 44.8652 35.844C44.8652 36.276 44.9333 36.668 45.0693 37.02C45.2133 37.372 45.4293 37.652 45.7173 37.86C46.0133 38.068 46.3893 38.172 46.8453 38.172ZM53.754 39.072C53.122 39.072 52.602 38.932 52.194 38.652C51.786 38.364 51.482 37.98 51.282 37.5C51.082 37.012 50.982 36.464 50.982 35.856C50.982 35.248 51.082 34.7 51.282 34.212C51.482 33.716 51.79 33.324 52.206 33.036C52.622 32.748 53.154 32.604 53.802 32.604C54.05 32.604 54.298 32.636 54.546 32.7C54.802 32.756 55.042 32.848 55.266 32.976C55.49 33.096 55.682 33.26 55.842 33.468V30.516H56.862V39H55.89L55.842 38.052C55.698 38.292 55.514 38.488 55.29 38.64C55.074 38.784 54.834 38.892 54.57 38.964C54.306 39.036 54.034 39.072 53.754 39.072ZM53.898 38.172C54.322 38.172 54.678 38.064 54.966 37.848C55.254 37.632 55.474 37.344 55.626 36.984C55.778 36.624 55.854 36.232 55.854 35.808C55.854 35.368 55.778 34.976 55.626 34.632C55.482 34.288 55.266 34.016 54.978 33.816C54.69 33.616 54.326 33.516 53.886 33.516C53.43 33.516 53.062 33.62 52.782 33.828C52.51 34.036 52.31 34.32 52.182 34.68C52.062 35.032 52.002 35.428 52.002 35.868C52.002 36.188 52.034 36.488 52.098 36.768C52.17 37.04 52.278 37.284 52.422 37.5C52.574 37.708 52.77 37.872 53.01 37.992C53.25 38.112 53.546 38.172 53.898 38.172ZM61.1042 39.072C60.2322 39.072 59.5682 38.84 59.1122 38.376C58.6642 37.912 58.4402 37.2 58.4402 36.24V32.676H59.4602V36.192C59.4602 36.608 59.5202 36.964 59.6402 37.26C59.7602 37.556 59.9402 37.784 60.1802 37.944C60.4282 38.096 60.7362 38.172 61.1042 38.172C61.4882 38.172 61.8042 38.096 62.0522 37.944C62.3002 37.784 62.4802 37.556 62.5922 37.26C62.7122 36.964 62.7722 36.608 62.7722 36.192V32.676H63.7922V36.24C63.7922 37.2 63.5602 37.912 63.0962 38.376C62.6402 38.84 61.9762 39.072 61.1042 39.072ZM68.0782 39.072C67.4142 39.072 66.8622 38.936 66.4222 38.664C65.9902 38.384 65.6662 38 65.4502 37.512C65.2422 37.024 65.1382 36.472 65.1382 35.856C65.1382 35.256 65.2462 34.712 65.4622 34.224C65.6862 33.728 66.0222 33.336 66.4702 33.048C66.9262 32.752 67.5022 32.604 68.1982 32.604C68.6302 32.604 69.0142 32.676 69.3502 32.82C69.6942 32.964 69.9782 33.176 70.2022 33.456C70.4262 33.728 70.5822 34.072 70.6702 34.488H69.6262C69.5062 34.136 69.3142 33.888 69.0502 33.744C68.7942 33.592 68.4902 33.516 68.1382 33.516C67.6582 33.516 67.2742 33.628 66.9862 33.852C66.6982 34.076 66.4862 34.368 66.3502 34.728C66.2222 35.08 66.1582 35.456 66.1582 35.856C66.1582 36.272 66.2262 36.656 66.3622 37.008C66.4982 37.36 66.7102 37.644 66.9982 37.86C67.2862 38.068 67.6582 38.172 68.1142 38.172C68.4502 38.172 68.7662 38.1 69.0622 37.956C69.3662 37.812 69.5662 37.556 69.6622 37.188H70.7182C70.6382 37.62 70.4662 37.976 70.2022 38.256C69.9462 38.536 69.6302 38.744 69.2542 38.88C68.8862 39.008 68.4942 39.072 68.0782 39.072ZM74.387 39.072C73.723 39.072 73.255 38.892 72.983 38.532C72.719 38.172 72.587 37.66 72.587 36.996V33.576H71.555V32.676H72.587V30.78H73.607V32.676H75.551V33.576H73.607V36.864C73.607 37.104 73.627 37.324 73.667 37.524C73.707 37.716 73.791 37.872 73.919 37.992C74.047 38.104 74.239 38.164 74.495 38.172C74.679 38.172 74.839 38.14 74.975 38.076C75.119 38.012 75.239 37.936 75.335 37.848L75.779 38.592C75.643 38.704 75.499 38.796 75.347 38.868C75.203 38.94 75.051 38.992 74.891 39.024C74.739 39.056 74.571 39.072 74.387 39.072ZM82.7632 39.072C82.0992 39.072 81.5432 38.936 81.0952 38.664C80.6472 38.384 80.3112 38 80.0872 37.512C79.8712 37.024 79.7632 36.468 79.7632 35.844C79.7632 35.212 79.8752 34.656 80.0992 34.176C80.3232 33.688 80.6592 33.304 81.1072 33.024C81.5552 32.744 82.1152 32.604 82.7872 32.604C83.4512 32.604 84.0032 32.744 84.4432 33.024C84.8912 33.304 85.2232 33.688 85.4392 34.176C85.6632 34.656 85.7752 35.212 85.7752 35.844C85.7752 36.468 85.6632 37.024 85.4392 37.512C85.2152 38 84.8792 38.384 84.4312 38.664C83.9912 38.936 83.4352 39.072 82.7632 39.072ZM82.7632 38.172C83.2272 38.172 83.6032 38.068 83.8912 37.86C84.1872 37.652 84.4032 37.372 84.5392 37.02C84.6832 36.668 84.7552 36.276 84.7552 35.844C84.7552 35.412 84.6832 35.02 84.5392 34.668C84.4032 34.316 84.1872 34.036 83.8912 33.828C83.6032 33.62 83.2272 33.516 82.7632 33.516C82.3072 33.516 81.9312 33.62 81.6352 33.828C81.3472 34.036 81.1312 34.316 80.9872 34.668C80.8512 35.02 80.7832 35.412 80.7832 35.844C80.7832 36.276 80.8512 36.668 80.9872 37.02C81.1312 37.372 81.3472 37.652 81.6352 37.86C81.9312 38.068 82.3072 38.172 82.7632 38.172ZM87.6348 39V33.576H86.6028V32.676H87.6348V32.004C87.6348 31.532 87.6988 31.148 87.8268 30.852C87.9628 30.548 88.1748 30.324 88.4628 30.18C88.7588 30.036 89.1468 29.964 89.6268 29.964H90.3468V30.864H89.7348C89.4468 30.864 89.2228 30.912 89.0628 31.008C88.9108 31.104 88.8028 31.248 88.7388 31.44C88.6828 31.624 88.6548 31.852 88.6548 32.124V32.676H90.3468V33.576H88.6548V39H87.6348ZM97.2197 39C96.7397 39 96.3517 38.928 96.0557 38.784C95.7677 38.64 95.5557 38.416 95.4197 38.112C95.2917 37.808 95.2277 37.424 95.2277 36.96V33.576H94.1957V32.676H95.2277V30.792H96.2477V32.676H97.9397V33.576H96.2477V36.852C96.2477 37.284 96.3237 37.604 96.4757 37.812C96.6357 38.012 96.9557 38.112 97.4357 38.112H97.9037V39H97.2197ZM99.0931 39V30.516H100.113V33.648C100.265 33.424 100.449 33.236 100.665 33.084C100.889 32.924 101.133 32.804 101.397 32.724C101.661 32.644 101.933 32.604 102.213 32.604C102.829 32.604 103.309 32.732 103.653 32.988C104.005 33.244 104.253 33.592 104.397 34.032C104.541 34.464 104.613 34.96 104.613 35.52V39H103.593V35.832C103.593 35.552 103.573 35.276 103.533 35.004C103.501 34.724 103.433 34.472 103.329 34.248C103.225 34.024 103.065 33.844 102.849 33.708C102.641 33.572 102.357 33.504 101.997 33.504C101.653 33.504 101.357 33.58 101.109 33.732C100.869 33.884 100.677 34.088 100.533 34.344C100.389 34.592 100.281 34.868 100.209 35.172C100.145 35.468 100.113 35.76 100.113 36.048V39H99.0931ZM108.919 39.072C108.247 39.072 107.691 38.936 107.251 38.664C106.811 38.384 106.483 38 106.267 37.512C106.051 37.024 105.943 36.468 105.943 35.844C105.943 35.212 106.055 34.656 106.279 34.176C106.511 33.688 106.847 33.304 107.287 33.024C107.727 32.744 108.267 32.604 108.907 32.604C109.403 32.604 109.827 32.7 110.179 32.892C110.539 33.076 110.835 33.324 111.067 33.636C111.299 33.948 111.467 34.292 111.571 34.668C111.675 35.036 111.719 35.408 111.703 35.784C111.695 35.856 111.687 35.928 111.679 36C111.679 36.072 111.675 36.144 111.667 36.216H106.975C107.007 36.584 107.099 36.916 107.251 37.212C107.403 37.508 107.619 37.744 107.899 37.92C108.179 38.088 108.527 38.172 108.943 38.172C109.151 38.172 109.359 38.148 109.567 38.1C109.783 38.044 109.975 37.952 110.143 37.824C110.319 37.696 110.443 37.524 110.515 37.308H111.559C111.463 37.716 111.283 38.052 111.019 38.316C110.755 38.572 110.439 38.764 110.071 38.892C109.703 39.012 109.319 39.072 108.919 39.072ZM106.999 35.328H110.659C110.651 34.968 110.571 34.652 110.419 34.38C110.267 34.108 110.059 33.896 109.795 33.744C109.539 33.592 109.231 33.516 108.871 33.516C108.479 33.516 108.147 33.6 107.875 33.768C107.611 33.936 107.407 34.156 107.263 34.428C107.119 34.7 107.031 35 106.999 35.328ZM117.604 39L115.636 32.676H116.788L118.3 38.016L119.86 32.676H121.24L122.812 38.016L124.3 32.676H125.464L123.496 39H122.104L120.544 33.876L118.984 39H117.604ZM129.145 39.072C128.473 39.072 127.917 38.936 127.477 38.664C127.037 38.384 126.709 38 126.493 37.512C126.277 37.024 126.169 36.468 126.169 35.844C126.169 35.212 126.281 34.656 126.505 34.176C126.737 33.688 127.073 33.304 127.513 33.024C127.953 32.744 128.493 32.604 129.133 32.604C129.629 32.604 130.053 32.7 130.405 32.892C130.765 33.076 131.061 33.324 131.293 33.636C131.525 33.948 131.693 34.292 131.797 34.668C131.901 35.036 131.945 35.408 131.929 35.784C131.921 35.856 131.913 35.928 131.905 36C131.905 36.072 131.901 36.144 131.893 36.216H127.201C127.233 36.584 127.325 36.916 127.477 37.212C127.629 37.508 127.845 37.744 128.125 37.92C128.405 38.088 128.753 38.172 129.169 38.172C129.377 38.172 129.585 38.148 129.793 38.1C130.009 38.044 130.201 37.952 130.369 37.824C130.545 37.696 130.669 37.524 130.741 37.308H131.785C131.689 37.716 131.509 38.052 131.245 38.316C130.981 38.572 130.665 38.764 130.297 38.892C129.929 39.012 129.545 39.072 129.145 39.072ZM127.225 35.328H130.885C130.877 34.968 130.797 34.652 130.645 34.38C130.493 34.108 130.285 33.896 130.021 33.744C129.765 33.592 129.457 33.516 129.097 33.516C128.705 33.516 128.373 33.6 128.101 33.768C127.837 33.936 127.633 34.156 127.489 34.428C127.345 34.7 127.257 35 127.225 35.328ZM136.024 39.072C135.352 39.072 134.796 38.936 134.356 38.664C133.916 38.384 133.588 38 133.372 37.512C133.156 37.024 133.048 36.468 133.048 35.844C133.048 35.212 133.16 34.656 133.384 34.176C133.616 33.688 133.952 33.304 134.392 33.024C134.832 32.744 135.372 32.604 136.012 32.604C136.508 32.604 136.932 32.7 137.284 32.892C137.644 33.076 137.94 33.324 138.172 33.636C138.404 33.948 138.572 34.292 138.676 34.668C138.78 35.036 138.824 35.408 138.808 35.784C138.8 35.856 138.792 35.928 138.784 36C138.784 36.072 138.78 36.144 138.772 36.216H134.08C134.112 36.584 134.204 36.916 134.356 37.212C134.508 37.508 134.724 37.744 135.004 37.92C135.284 38.088 135.632 38.172 136.048 38.172C136.256 38.172 136.464 38.148 136.672 38.1C136.888 38.044 137.08 37.952 137.248 37.824C137.424 37.696 137.548 37.524 137.62 37.308H138.664C138.568 37.716 138.388 38.052 138.124 38.316C137.86 38.572 137.544 38.764 137.176 38.892C136.808 39.012 136.424 39.072 136.024 39.072ZM134.104 35.328H137.764C137.756 34.968 137.676 34.652 137.524 34.38C137.372 34.108 137.164 33.896 136.9 33.744C136.644 33.592 136.336 33.516 135.976 33.516C135.584 33.516 135.252 33.6 134.98 33.768C134.716 33.936 134.512 34.156 134.368 34.428C134.224 34.7 134.136 35 134.104 35.328ZM140.167 39V30.516H141.187V35.4H142.291L144.187 32.676H145.339L143.227 35.688L145.519 39H144.319L142.411 36.288H141.187V39H140.167Z" fill="black"/>
<path d="M19.3334 11.2V9.6C19.7867 9.6 20.1334 9.25334 20.1334 8.8C20.1334 8.34666 19.7867 8 19.3334 8H8.6667C8.21336 8 7.8667 8.34666 7.8667 8.8C7.8667 9.25334 8.21336 9.6 8.6667 9.6V11.2C8.21336 11.2 7.8667 11.5467 7.8667 12C7.8667 12.4533 8.21336 12.8 8.6667 12.8H8.67342C8.79561 15.25 10.5911 17.2784 12.9334 17.7587V18.9333C12.48 18.9333 12.1334 19.28 12.1334 19.7333C12.1334 20.1855 12.4783 20.5315 12.9299 20.5332C12.8822 22.2982 12.3538 22.3491 11.9467 22.4H11.8667C11.8565 22.4 11.8473 22.4 11.84 22.4C11.8389 22.4002 11.8378 22.4005 11.8367 22.4007C11.3982 22.4157 11.0667 22.7568 11.0667 23.2C11.0667 23.6533 11.4134 24 11.8667 24H16.1334C16.5867 24 16.9334 23.6533 16.9334 23.2C16.9334 22.7566 16.6017 22.4155 16.163 22.4007C16.162 22.4005 16.161 22.4002 16.16 22.4C16.1515 22.4 16.1428 22.4 16.1334 22.4H16.0534C15.6463 22.3491 15.1179 22.2982 15.0702 20.5332C15.5218 20.5315 15.8667 20.1855 15.8667 19.7333C15.8667 19.28 15.52 18.9333 15.0667 18.9333V17.7587C17.409 17.2784 19.2045 15.25 19.3266 12.8H19.3334C19.7867 12.8 20.1334 12.4533 20.1334 12C20.1334 11.5467 19.7867 11.2 19.3334 11.2ZM8.40004 8.8C8.40004 8.64 8.5067 8.53334 8.6667 8.53334H19.3334C19.4934 8.53334 19.6 8.64 19.6 8.8C19.6 8.96 19.4934 9.06666 19.3334 9.06666H8.6667C8.5067 9.06666 8.40004 8.96 8.40004 8.8ZM9.20004 9.6H18.8V11.2H9.20004V9.6ZM16.1334 22.9333C16.2934 22.9333 16.4 23.04 16.4 23.2C16.4 23.36 16.2934 23.4667 16.1334 23.4667H11.8667C11.7067 23.4667 11.6 23.36 11.6 23.2C11.6 23.04 11.7067 22.9333 11.8667 22.9333H16.1334ZM13.0134 22.4C13.2534 22.0533 13.44 21.4933 13.4667 20.5333H14.5334C14.56 21.4933 14.72 22.0533 14.9867 22.4H13.0134ZM15.3334 19.7333C15.3334 19.8933 15.2267 20 15.0667 20H14.8H13.2H12.9334C12.7734 20 12.6667 19.8933 12.6667 19.7333C12.6667 19.5733 12.7734 19.4667 12.9334 19.4667H15.0667C15.2267 19.4667 15.3334 19.5733 15.3334 19.7333ZM14.5334 17.8667V18.9333H13.4667V17.8667H14.5334ZM14 17.3333C11.44 17.3333 9.33339 15.3333 9.20004 12.8H18.8C18.6667 15.3333 16.56 17.3333 14 17.3333ZM19.3334 12.2667H8.6667C8.5067 12.2667 8.40004 12.16 8.40004 12C8.40004 11.84 8.5067 11.7333 8.6667 11.7333H19.3334C19.4934 11.7333 19.6 11.84 19.6 12C19.6 12.16 19.4934 12.2667 19.3334 12.2667Z" fill="url(#paint1_linear_71_482)"/>
<path d="M12.9334 10.1333H10.8001C10.6401 10.1333 10.5334 10.24 10.5334 10.4C10.5334 10.56 10.6401 10.6666 10.8001 10.6666H12.9334C13.0934 10.6666 13.2001 10.56 13.2001 10.4C13.2001 10.24 13.0934 10.1333 12.9334 10.1333Z" fill="url(#paint2_linear_71_482)"/>
<path d="M17.2 10.1333H15.0667C14.9067 10.1333 14.8 10.24 14.8 10.4C14.8 10.56 14.9067 10.6666 15.0667 10.6666H17.2C17.36 10.6666 17.4667 10.56 17.4667 10.4C17.4667 10.24 17.36 10.1333 17.2 10.1333Z" fill="url(#paint3_linear_71_482)"/>
<path d="M14.0001 10.1333C13.8401 10.1333 13.7334 10.24 13.7334 10.4C13.7334 10.56 13.8401 10.6666 14.0001 10.6666C14.1601 10.6666 14.2667 10.56 14.2667 10.4C14.2667 10.24 14.1601 10.1333 14.0001 10.1333Z" fill="url(#paint4_linear_71_482)"/>
<path d="M18.2667 10.1333C18.1067 10.1333 18 10.24 18 10.4C18 10.56 18.1067 10.6666 18.2667 10.6666C18.4267 10.6666 18.5333 10.56 18.5333 10.4C18.5333 10.24 18.4267 10.1333 18.2667 10.1333Z" fill="url(#paint5_linear_71_482)"/>
<path d="M9.73345 10.1333C9.57345 10.1333 9.4668 10.24 9.4668 10.4C9.4668 10.56 9.57345 10.6666 9.73345 10.6666C9.89345 10.6666 10.0001 10.56 10.0001 10.4C10.0001 10.24 9.89345 10.1333 9.73345 10.1333Z" fill="url(#paint6_linear_71_482)"/>
<path d="M13.2001 16.2668C13.3601 16.2668 13.4668 16.1602 13.4668 16.0002C13.4668 15.8402 13.3601 15.7335 13.2001 15.7335C12.0268 15.7335 11.0668 14.7735 11.0668 13.6002C11.0668 13.4402 10.9601 13.3335 10.8001 13.3335C10.6401 13.3335 10.5334 13.4402 10.5334 13.6002C10.5334 15.0668 11.7334 16.2668 13.2001 16.2668Z" fill="url(#paint7_linear_71_482)"/>
<defs>
<linearGradient id="paint0_linear_71_482" x1="27.5313" y1="13.9477" x2="119.137" y2="35.3942" gradientUnits="userSpaceOnUse">
<stop stop-color="#1C7FF0"/>
<stop offset="1" stop-color="#9747FF"/>
</linearGradient>
<linearGradient id="paint1_linear_71_482" x1="14" y1="8" x2="14" y2="24" gradientUnits="userSpaceOnUse">
<stop stop-color="#0183FF"/>
<stop offset="1" stop-color="#9747FF"/>
</linearGradient>
<linearGradient id="paint2_linear_71_482" x1="11.8668" y1="10.1333" x2="11.8668" y2="10.6666" gradientUnits="userSpaceOnUse">
<stop stop-color="#0183FF"/>
<stop offset="1" stop-color="#9747FF"/>
</linearGradient>
<linearGradient id="paint3_linear_71_482" x1="16.1334" y1="10.1333" x2="16.1334" y2="10.6666" gradientUnits="userSpaceOnUse">
<stop stop-color="#0183FF"/>
<stop offset="1" stop-color="#9747FF"/>
</linearGradient>
<linearGradient id="paint4_linear_71_482" x1="14.0001" y1="10.1333" x2="14.0001" y2="10.6666" gradientUnits="userSpaceOnUse">
<stop stop-color="#0183FF"/>
<stop offset="1" stop-color="#9747FF"/>
</linearGradient>
<linearGradient id="paint5_linear_71_482" x1="18.2667" y1="10.1333" x2="18.2667" y2="10.6666" gradientUnits="userSpaceOnUse">
<stop stop-color="#0183FF"/>
<stop offset="1" stop-color="#9747FF"/>
</linearGradient>
<linearGradient id="paint6_linear_71_482" x1="9.73345" y1="10.1333" x2="9.73345" y2="10.6666" gradientUnits="userSpaceOnUse">
<stop stop-color="#0183FF"/>
<stop offset="1" stop-color="#9747FF"/>
</linearGradient>
<linearGradient id="paint7_linear_71_482" x1="12.0001" y1="13.3335" x2="12.0001" y2="16.2668" gradientUnits="userSpaceOnUse">
<stop stop-color="#0183FF"/>
<stop offset="1" stop-color="#9747FF"/>
</linearGradient>
</defs>
</svg>
