<svg width="25" height="20" viewBox="0 0 25 20" fill="none" xmlns="http://www.w3.org/2000/svg">
<path d="M23.6801 8.48954C22.9166 6.09137 22.426 4.98097 22.2014 4.53241L22.2013 4.53226C22.0207 4.16506 21.5631 3.3749 21.5449 3.34349C21.4808 3.26625 19.8916 1.38872 16.0615 0L15.5554 1.36041C17.3664 2.01704 18.606 2.77532 19.3738 3.34543C17.2529 2.72102 14.7309 2.33889 12.4972 2.33889C10.2609 2.33889 7.73589 2.72213 5.61337 3.34789C6.32427 2.82716 7.61698 2.0211 9.43911 1.36041L8.93299 0C5.1029 1.38872 3.51369 3.26625 3.44959 3.34349C3.44959 3.34349 3.07207 3.94515 2.75489 4.60579C2.56478 5.00174 2.07232 5.90581 1.3096 8.50519C0.353004 11.7661 0.0132609 16.3753 0 16.5597C0.168868 16.9244 2.12619 20 7.39326 20L8.83655 17.9367C10.0278 18.2418 11.2568 18.3961 12.4973 18.3961C13.7405 18.3961 14.9719 18.2411 16.1655 17.9348L17.5998 20C22.9717 20 24.7251 17.0291 25 16.5514C24.9788 16.3319 24.4468 10.898 23.6801 8.48954ZM22.2742 17.2738C21.1569 18.0545 19.8443 18.4806 18.3677 18.5428L17.6272 17.4766C18.6485 17.0967 19.6284 16.6023 20.5491 15.9972L19.7357 14.7907C18.7087 15.4657 17.5998 15.9879 16.4392 16.3495V16.3509C16.4392 16.3509 14.5173 16.9468 12.4974 16.9468C10.4775 16.9468 8.56095 16.3526 8.56095 16.3526V16.3511C7.39835 15.9895 6.28767 15.4667 5.25904 14.7907L4.44558 15.9971C5.36797 16.6033 6.34966 17.0984 7.37291 17.4785L6.62849 18.5428C5.15134 18.4809 3.83812 18.0547 2.72044 17.2738C2.09732 16.8383 1.69588 16.3969 1.50293 16.1593C1.58808 15.1666 1.93648 11.5782 2.71985 8.90838C3.30778 6.90472 3.71364 5.96707 3.9352 5.51436C3.9352 5.51436 9.61679 3.78814 12.4974 3.78814C15.3756 3.78814 18.8874 4.4941 21.0403 5.50537C21.2731 6.02896 21.6875 7.06381 22.2797 8.92404C22.9044 10.8865 23.3704 15.0569 23.4866 16.1656C23.2908 16.4057 22.8912 16.8427 22.2742 17.2738Z" fill="white"/>
<path d="M7.6355 9.88135H9.10349V12.2969H7.6355V9.88135Z" fill="white"/>
<path d="M15.8911 9.88135H17.3591V12.2969H15.8911V9.88135Z" fill="white"/>
</svg>
