<svg width="20" height="20" viewBox="0 0 20 20" fill="none" xmlns="http://www.w3.org/2000/svg">
<g clip-path="url(#clip0_63_74)">
<path d="M9.85106 19.5223C9.84953 19.5223 9.84801 19.5223 9.84686 19.5223C9.71062 19.5223 9.599 19.6318 9.59671 19.7687C9.59461 19.9068 9.70471 20.0207 9.84266 20.0232C9.89647 20.0239 9.9499 20.0243 10.0039 20.0243C10.2081 20.0243 10.4147 20.018 10.6181 20.0058C10.7559 19.9974 10.8608 19.8787 10.8526 19.7406C10.8442 19.6025 10.7236 19.4982 10.5878 19.5059C10.3433 19.5206 10.0945 19.5263 9.85106 19.5223Z" fill="url(#paint0_linear_63_74)"/>
<path d="M9.2978 0.267385C9.28463 0.129664 9.16556 0.0272797 9.02475 0.0423699C8.76887 0.0672018 8.51051 0.102348 8.25674 0.147046C8.12069 0.171114 8.02986 0.301004 8.05391 0.437006C8.07528 0.558492 8.1808 0.644066 8.29986 0.644066C8.31436 0.644066 8.32905 0.642729 8.34356 0.640246C8.58436 0.59765 8.82993 0.564222 9.07321 0.540536C9.2106 0.527356 9.31134 0.404916 9.2978 0.267385Z" fill="url(#paint1_linear_63_74)"/>
<path d="M11.3123 0.582839C11.4356 0.582839 11.543 0.491534 11.56 0.365846C11.5783 0.228698 11.4823 0.102628 11.3453 0.0842907C11.0908 0.0502901 10.8311 0.0254582 10.5737 0.010941C10.4388 0.00559263 10.3174 0.108741 10.31 0.246844C10.3022 0.384948 10.4077 0.503186 10.5454 0.511017C10.7902 0.52477 11.037 0.548265 11.2787 0.580738C11.29 0.582075 11.3012 0.582839 11.3123 0.582839Z" fill="url(#paint2_linear_63_74)"/>
<path d="M3.21297 2.9964C3.11433 2.89955 2.95595 2.90089 2.8594 2.99983C2.67947 3.18359 2.50412 3.37709 2.33849 3.57479C2.24958 3.68061 2.26312 3.83858 2.36921 3.92759C2.41615 3.96694 2.47301 3.98604 2.52968 3.98604C2.60124 3.98604 2.67203 3.95567 2.72145 3.89665C2.87887 3.70888 3.04544 3.52512 3.21641 3.35054C3.31315 3.25178 3.31181 3.09324 3.21297 2.9964Z" fill="url(#paint3_linear_63_74)"/>
<path d="M3.78082 17.2005C3.67664 17.1102 3.51827 17.1209 3.4282 17.2255C3.33757 17.3298 3.34883 17.488 3.4532 17.5787C3.64725 17.7474 3.85104 17.9109 4.05826 18.0645C4.1031 18.0975 4.15538 18.1134 4.2069 18.1134C4.2836 18.1134 4.35916 18.0784 4.40801 18.0119C4.49044 17.9008 4.46697 17.744 4.35592 17.6616C4.15881 17.5161 3.96552 17.3608 3.78082 17.2005Z" fill="url(#paint4_linear_63_74)"/>
<path d="M7.07403 0.689913C7.02899 0.55945 6.88665 0.489347 6.75633 0.534427C6.51304 0.618091 6.26995 0.712261 6.03354 0.814645C5.90684 0.869657 5.84864 1.01693 5.90341 1.14376C5.94424 1.23832 6.03621 1.29486 6.13314 1.29486C6.16615 1.29486 6.19993 1.28817 6.23236 1.27423C6.45676 1.177 6.68764 1.08741 6.91852 1.00814C7.04903 0.963255 7.11867 0.820758 7.07403 0.689913Z" fill="url(#paint5_linear_63_74)"/>
<path d="M5.60361 18.4444C5.48073 18.3804 5.3298 18.4278 5.26606 18.5504C5.20214 18.6728 5.24927 18.8241 5.37158 18.8883C5.60074 19.0081 5.83639 19.1202 6.07262 19.2214C6.10467 19.235 6.13807 19.2417 6.17108 19.2417C6.26801 19.2417 6.36036 19.1848 6.40081 19.0896C6.45538 18.9626 6.39642 18.8153 6.26953 18.7609C6.04533 18.6648 5.82113 18.5584 5.60361 18.4444Z" fill="url(#paint6_linear_63_74)"/>
<path d="M1.94327 15.5143C1.83107 15.5951 1.80588 15.7516 1.8866 15.8637C2.03676 16.0721 2.19723 16.2778 2.364 16.4751C2.41361 16.5338 2.48421 16.5638 2.55519 16.5638C2.61224 16.5638 2.66949 16.5443 2.71643 16.5046C2.82194 16.4154 2.83511 16.2572 2.746 16.1518C2.58744 15.9644 2.43479 15.769 2.29245 15.5711C2.21193 15.4591 2.05546 15.4335 1.94327 15.5143Z" fill="url(#paint7_linear_63_74)"/>
<path d="M0.755908 13.8356C0.854747 14.0745 0.963699 14.3116 1.07971 14.5402C1.12398 14.6271 1.21175 14.677 1.30296 14.677C1.34093 14.677 1.37966 14.6684 1.41592 14.6499C1.53918 14.5872 1.58822 14.4367 1.52563 14.3133C1.41554 14.0963 1.31193 13.8709 1.21786 13.6438C1.16519 13.516 1.01808 13.4558 0.891192 13.5084C0.763731 13.5613 0.703053 13.7078 0.755908 13.8356Z" fill="url(#paint8_linear_63_74)"/>
<path d="M7.66472 19.2332C7.53077 19.1985 7.39472 19.28 7.36076 19.4143C7.3268 19.5484 7.40789 19.6844 7.54165 19.7184C7.79085 19.7816 8.04577 19.8359 8.30031 19.8796C8.31443 19.8821 8.32893 19.8831 8.34286 19.8831C8.4625 19.8831 8.5682 19.7971 8.589 19.6751C8.61247 19.5389 8.52107 19.4094 8.38484 19.386C8.14327 19.3446 7.90094 19.293 7.66472 19.2332Z" fill="url(#paint9_linear_63_74)"/>
<path d="M0.619293 11.5197C0.597541 11.3831 0.471798 11.2897 0.332697 11.3118C0.196459 11.3336 0.103726 11.4622 0.125478 11.5986C0.16612 11.8547 0.217448 12.1109 0.277172 12.3598C0.304648 12.4746 0.407304 12.5515 0.520072 12.5515C0.539344 12.5515 0.559188 12.5492 0.579033 12.5445C0.712981 12.5122 0.795792 12.3769 0.763546 12.2425C0.706684 12.0062 0.658028 11.763 0.619293 11.5197Z" fill="url(#paint10_linear_63_74)"/>
<path d="M0.250342 10.3019C0.388489 10.3019 0.500494 10.1899 0.500494 10.0516L0.500112 10.0096C0.500112 9.76473 0.509653 9.51679 0.528352 9.27267C0.538847 9.13476 0.435809 9.01442 0.298045 9.00391C0.158563 8.99245 0.04007 9.09656 0.0295755 9.23447C0.00992211 9.49119 0 9.75212 0 10.014L0.00019081 10.0516C0.00019081 10.1899 0.112196 10.3019 0.250342 10.3019Z" fill="url(#paint11_linear_63_74)"/>
<path d="M1.17209 5.85274C1.20816 5.87069 1.24651 5.87929 1.2841 5.87929C1.37569 5.87929 1.46384 5.82886 1.50792 5.74138C1.61725 5.52343 1.73727 5.30605 1.86454 5.09555C1.93571 4.97713 1.89774 4.82317 1.77944 4.75173C1.66133 4.67991 1.50754 4.71811 1.43598 4.83654C1.30242 5.05831 1.1761 5.28695 1.06085 5.51655C0.998839 5.64014 1.04864 5.79066 1.17209 5.85274Z" fill="url(#paint12_linear_63_74)"/>
<path d="M0.452951 8.00262C0.472413 8.00739 0.491685 8.00949 0.510575 8.00949C0.623916 8.00949 0.726763 7.93175 0.753858 7.81657C0.810146 7.5778 0.876357 7.33884 0.950582 7.10619C0.992751 6.97439 0.920244 6.83342 0.788585 6.79139C0.656545 6.74956 0.516299 6.82196 0.474321 6.95356C0.395899 7.19845 0.326253 7.4502 0.266911 7.70158C0.235427 7.83624 0.318621 7.9711 0.452951 8.00262Z" fill="url(#paint13_linear_63_74)"/>
<path d="M15.5087 2.19878C15.5883 2.19878 15.6667 2.16077 15.715 2.08991C15.7932 1.97606 15.7644 1.82019 15.6503 1.74188C15.4381 1.59613 15.2174 1.45688 14.9938 1.32814C14.8741 1.2588 14.7213 1.30044 14.6524 1.41983C14.5833 1.53959 14.6245 1.69279 14.7442 1.76174C14.9562 1.88418 15.1661 2.01636 15.3675 2.15485C15.4107 2.18446 15.4599 2.19878 15.5087 2.19878Z" fill="url(#paint14_linear_63_74)"/>
<path d="M14.7796 18.2367C14.5692 18.3595 14.3505 18.4761 14.1297 18.5828C14.0053 18.643 13.9534 18.7928 14.0135 18.9171C14.0567 19.0065 14.1458 19.0587 14.2389 19.0587C14.2753 19.0587 14.3123 19.0506 14.3476 19.0336C14.5797 18.9213 14.81 18.7987 15.0317 18.6696C15.151 18.5998 15.1912 18.4465 15.1218 18.3271C15.0521 18.2075 14.8999 18.1674 14.7796 18.2367Z" fill="url(#paint15_linear_63_74)"/>
<path d="M17.2167 3.68677C17.2768 3.68677 17.3371 3.66518 17.3851 3.62144C17.4872 3.52822 17.4945 3.37006 17.4016 3.26787C17.2279 3.07705 17.0449 2.89081 16.8577 2.7145C16.7574 2.61995 16.5992 2.62434 16.5042 2.72539C16.4097 2.82605 16.4143 2.9846 16.5149 3.07934C16.6929 3.24686 16.8669 3.42374 17.0318 3.60501C17.081 3.65926 17.1487 3.68677 17.2167 3.68677Z" fill="url(#paint16_linear_63_74)"/>
<path d="M18.3049 15.1454C18.1892 15.0697 18.0341 15.1016 17.9585 15.2174C17.8238 15.4231 17.68 15.6252 17.5309 15.8183C17.4468 15.9278 17.467 16.085 17.5762 16.1696C17.6218 16.2047 17.6756 16.2217 17.7288 16.2217C17.8038 16.2217 17.8778 16.1881 17.9271 16.1243C18.0837 15.9211 18.235 15.7083 18.3768 15.4921C18.4526 15.3763 18.4203 15.2212 18.3049 15.1454Z" fill="url(#paint17_linear_63_74)"/>
<path d="M13.5051 1.14384C13.6055 1.14384 13.7001 1.08272 13.7385 0.983199C13.7881 0.854264 13.7238 0.709475 13.595 0.65962C13.3553 0.567169 13.1084 0.482932 12.8609 0.4092C12.7283 0.369851 12.5894 0.445684 12.5501 0.577866C12.5104 0.71043 12.586 0.84968 12.7184 0.88922C12.9533 0.959131 13.1878 1.03917 13.4153 1.12684C13.4446 1.1383 13.475 1.14384 13.5051 1.14384Z" fill="url(#paint18_linear_63_74)"/>
<path d="M19.1564 7.43828C19.1871 7.54888 19.2877 7.62146 19.3968 7.62146C19.4193 7.62146 19.4419 7.61841 19.4646 7.6121C19.5974 7.57486 19.675 7.43675 19.638 7.30362C19.5686 7.05472 19.4884 6.80602 19.3999 6.56439C19.3524 6.43469 19.2096 6.36841 19.0789 6.41559C18.9492 6.46315 18.8828 6.60699 18.9305 6.73688C19.0145 6.96609 19.0904 7.20219 19.1564 7.43828Z" fill="url(#paint19_linear_63_74)"/>
<path d="M19.5817 12.1187C19.6992 12.1187 19.804 12.0354 19.8269 11.9158C19.8755 11.6637 19.9148 11.4054 19.9438 11.1485C19.9595 11.0112 19.8608 10.887 19.7236 10.8715C19.584 10.8557 19.4624 10.9548 19.4472 11.092C19.4193 11.3363 19.3819 11.5815 19.3359 11.8209C19.3096 11.9567 19.3985 12.0881 19.534 12.1141C19.5502 12.1171 19.566 12.1187 19.5817 12.1187Z" fill="url(#paint20_linear_63_74)"/>
<path d="M19.2653 13.0912C19.135 13.044 18.9919 13.1116 18.9452 13.2417C18.8622 13.4719 18.7689 13.7019 18.6681 13.9254C18.6111 14.0514 18.667 14.1997 18.7929 14.2566C18.8263 14.2719 18.8612 14.2791 18.8956 14.2791C18.991 14.2791 19.082 14.2241 19.1238 14.1317C19.23 13.8963 19.3281 13.6541 19.4157 13.4117C19.4625 13.2816 19.3953 13.1382 19.2653 13.0912Z" fill="url(#paint21_linear_63_74)"/>
<path d="M12.7585 19.1181C12.524 19.1888 12.2843 19.2512 12.0458 19.3036C11.9107 19.3334 11.8254 19.4669 11.855 19.6017C11.8805 19.7188 11.984 19.7987 12.099 19.7987C12.1168 19.7987 12.1347 19.7968 12.1526 19.7929C12.4039 19.7377 12.6564 19.672 12.9029 19.5973C13.0353 19.5572 13.1101 19.4176 13.0701 19.2852C13.0302 19.1529 12.8913 19.0774 12.7585 19.1181Z" fill="url(#paint22_linear_63_74)"/>
<path d="M18.0068 4.42068C17.8913 4.49708 17.8599 4.65238 17.9362 4.76775C18.0715 4.97252 18.1999 5.18435 18.3184 5.39772C18.364 5.48023 18.4493 5.52665 18.5372 5.52665C18.5783 5.52665 18.62 5.51653 18.6584 5.49513C18.7792 5.4279 18.8227 5.27566 18.7555 5.15474C18.6309 4.93011 18.4956 4.70701 18.3533 4.49135C18.2768 4.37598 18.1216 4.34427 18.0068 4.42068Z" fill="url(#paint23_linear_63_74)"/>
<path d="M19.4419 8.88394C19.4706 9.1271 19.49 9.37447 19.4999 9.61897C19.5055 9.75382 19.6163 9.85926 19.7497 9.85926C19.7532 9.85926 19.7564 9.85907 19.7598 9.85907C19.898 9.85353 20.0054 9.73682 19.9997 9.59872C19.9896 9.34142 19.9688 9.08107 19.9386 8.8253C19.9224 8.68796 19.7986 8.58844 19.661 8.60602C19.5238 8.62225 19.4257 8.7466 19.4419 8.88394Z" fill="url(#paint24_linear_63_74)"/>
<path d="M15.8087 18.1166H17.9878C18.1259 18.1166 18.2378 18.0045 18.2378 17.8662C18.2378 17.7279 18.1259 17.6158 17.9878 17.6158H16.5094C16.6388 17.505 16.7662 17.3919 16.8887 17.2756C16.9889 17.1805 16.9929 17.0219 16.8979 16.9216C16.8027 16.8215 16.6445 16.8173 16.5443 16.9125C16.3888 17.0603 16.2253 17.2036 16.0587 17.3417V15.6846C16.0587 15.5463 15.9469 15.4342 15.8087 15.4342C15.6704 15.4342 15.5586 15.5463 15.5586 15.6846V17.8662C15.5586 18.0045 15.6704 18.1166 15.8087 18.1166Z" fill="url(#paint25_linear_63_74)"/>
<path d="M4.60752 4.22255V2.17755C4.71437 2.10344 4.82256 2.03143 4.93171 1.96247C5.0481 1.88836 5.08302 1.73382 5.00917 1.61692C4.93514 1.50021 4.78077 1.46545 4.664 1.53918C4.5373 1.61941 4.41213 1.70403 4.28849 1.79056H2.17813C2.03998 1.79056 1.92798 1.90268 1.92798 2.04079C1.92798 2.17908 2.03998 2.29121 2.17813 2.29121H3.95667C3.96316 2.30381 3.96602 2.31757 3.97479 2.32941C4.00876 2.37506 4.05665 2.3997 4.10741 2.41422V4.22255C4.10741 4.36085 4.21922 4.47298 4.35737 4.47298C4.49571 4.47298 4.60752 4.36085 4.60752 4.22255Z" fill="url(#paint26_linear_63_74)"/>
</g>
<defs>
<linearGradient id="paint0_linear_63_74" x1="10.2249" y1="19.5055" x2="10.2249" y2="20.0243" gradientUnits="userSpaceOnUse">
<stop stop-color="#0183FF"/>
<stop offset="1" stop-color="#9747FF"/>
</linearGradient>
<linearGradient id="paint1_linear_63_74" x1="8.67453" y1="0.0408936" x2="8.67453" y2="0.644066" gradientUnits="userSpaceOnUse">
<stop stop-color="#0183FF"/>
<stop offset="1" stop-color="#9747FF"/>
</linearGradient>
<linearGradient id="paint2_linear_63_74" x1="10.9359" y1="0.0107422" x2="10.9359" y2="0.582839" gradientUnits="userSpaceOnUse">
<stop stop-color="#0183FF"/>
<stop offset="1" stop-color="#9747FF"/>
</linearGradient>
<linearGradient id="paint3_linear_63_74" x1="2.78391" y1="2.92468" x2="2.78391" y2="3.98604" gradientUnits="userSpaceOnUse">
<stop stop-color="#0183FF"/>
<stop offset="1" stop-color="#9747FF"/>
</linearGradient>
<linearGradient id="paint4_linear_63_74" x1="3.91211" y1="17.1393" x2="3.91211" y2="18.1134" gradientUnits="userSpaceOnUse">
<stop stop-color="#0183FF"/>
<stop offset="1" stop-color="#9747FF"/>
</linearGradient>
<linearGradient id="paint5_linear_63_74" x1="6.48517" y1="0.520752" x2="6.48517" y2="1.29486" gradientUnits="userSpaceOnUse">
<stop stop-color="#0183FF"/>
<stop offset="1" stop-color="#9747FF"/>
</linearGradient>
<linearGradient id="paint6_linear_63_74" x1="5.82936" y1="18.4159" x2="5.82936" y2="19.2417" gradientUnits="userSpaceOnUse">
<stop stop-color="#0183FF"/>
<stop offset="1" stop-color="#9747FF"/>
</linearGradient>
<linearGradient id="paint7_linear_63_74" x1="2.32222" y1="15.4672" x2="2.32222" y2="16.5638" gradientUnits="userSpaceOnUse">
<stop stop-color="#0183FF"/>
<stop offset="1" stop-color="#9747FF"/>
</linearGradient>
<linearGradient id="paint8_linear_63_74" x1="1.14483" y1="13.4894" x2="1.14483" y2="14.677" gradientUnits="userSpaceOnUse">
<stop stop-color="#0183FF"/>
<stop offset="1" stop-color="#9747FF"/>
</linearGradient>
<linearGradient id="paint9_linear_63_74" x1="7.97285" y1="19.2252" x2="7.97285" y2="19.8831" gradientUnits="userSpaceOnUse">
<stop stop-color="#0183FF"/>
<stop offset="1" stop-color="#9747FF"/>
</linearGradient>
<linearGradient id="paint10_linear_63_74" x1="0.446413" y1="11.3086" x2="0.446413" y2="12.5515" gradientUnits="userSpaceOnUse">
<stop stop-color="#0183FF"/>
<stop offset="1" stop-color="#9747FF"/>
</linearGradient>
<linearGradient id="paint11_linear_63_74" x1="0.264544" y1="9.00305" x2="0.264544" y2="10.3019" gradientUnits="userSpaceOnUse">
<stop stop-color="#0183FF"/>
<stop offset="1" stop-color="#9747FF"/>
</linearGradient>
<linearGradient id="paint12_linear_63_74" x1="1.4673" y1="4.71545" x2="1.4673" y2="5.87929" gradientUnits="userSpaceOnUse">
<stop stop-color="#0183FF"/>
<stop offset="1" stop-color="#9747FF"/>
</linearGradient>
<linearGradient id="paint13_linear_63_74" x1="0.611418" y1="6.77954" x2="0.611418" y2="8.00949" gradientUnits="userSpaceOnUse">
<stop stop-color="#0183FF"/>
<stop offset="1" stop-color="#9747FF"/>
</linearGradient>
<linearGradient id="paint14_linear_63_74" x1="15.189" y1="1.29456" x2="15.189" y2="2.19878" gradientUnits="userSpaceOnUse">
<stop stop-color="#0183FF"/>
<stop offset="1" stop-color="#9747FF"/>
</linearGradient>
<linearGradient id="paint15_linear_63_74" x1="14.5722" y1="18.2028" x2="14.5722" y2="19.0587" gradientUnits="userSpaceOnUse">
<stop stop-color="#0183FF"/>
<stop offset="1" stop-color="#9747FF"/>
</linearGradient>
<linearGradient id="paint16_linear_63_74" x1="16.9515" y1="2.64648" x2="16.9515" y2="3.68677" gradientUnits="userSpaceOnUse">
<stop stop-color="#0183FF"/>
<stop offset="1" stop-color="#9747FF"/>
</linearGradient>
<linearGradient id="paint17_linear_63_74" x1="17.9484" y1="15.1044" x2="17.9484" y2="16.2217" gradientUnits="userSpaceOnUse">
<stop stop-color="#0183FF"/>
<stop offset="1" stop-color="#9747FF"/>
</linearGradient>
<linearGradient id="paint18_linear_63_74" x1="13.1474" y1="0.398804" x2="13.1474" y2="1.14384" gradientUnits="userSpaceOnUse">
<stop stop-color="#0183FF"/>
<stop offset="1" stop-color="#9747FF"/>
</linearGradient>
<linearGradient id="paint19_linear_63_74" x1="19.2811" y1="6.40039" x2="19.2811" y2="7.62146" gradientUnits="userSpaceOnUse">
<stop stop-color="#0183FF"/>
<stop offset="1" stop-color="#9747FF"/>
</linearGradient>
<linearGradient id="paint20_linear_63_74" x1="19.6384" y1="10.8699" x2="19.6384" y2="12.1187" gradientUnits="userSpaceOnUse">
<stop stop-color="#0183FF"/>
<stop offset="1" stop-color="#9747FF"/>
</linearGradient>
<linearGradient id="paint21_linear_63_74" x1="19.0382" y1="13.0762" x2="19.0382" y2="14.2791" gradientUnits="userSpaceOnUse">
<stop stop-color="#0183FF"/>
<stop offset="1" stop-color="#9747FF"/>
</linearGradient>
<linearGradient id="paint22_linear_63_74" x1="12.465" y1="19.1071" x2="12.465" y2="19.7987" gradientUnits="userSpaceOnUse">
<stop stop-color="#0183FF"/>
<stop offset="1" stop-color="#9747FF"/>
</linearGradient>
<linearGradient id="paint23_linear_63_74" x1="18.3408" y1="4.37903" x2="18.3408" y2="5.52665" gradientUnits="userSpaceOnUse">
<stop stop-color="#0183FF"/>
<stop offset="1" stop-color="#9747FF"/>
</linearGradient>
<linearGradient id="paint24_linear_63_74" x1="19.72" y1="8.604" x2="19.72" y2="9.85926" gradientUnits="userSpaceOnUse">
<stop stop-color="#0183FF"/>
<stop offset="1" stop-color="#9747FF"/>
</linearGradient>
<linearGradient id="paint25_linear_63_74" x1="16.8982" y1="15.4342" x2="16.8982" y2="18.1166" gradientUnits="userSpaceOnUse">
<stop stop-color="#0183FF"/>
<stop offset="1" stop-color="#9747FF"/>
</linearGradient>
<linearGradient id="paint26_linear_63_74" x1="3.48795" y1="1.50049" x2="3.48795" y2="4.47298" gradientUnits="userSpaceOnUse">
<stop stop-color="#0183FF"/>
<stop offset="1" stop-color="#9747FF"/>
</linearGradient>
<clipPath id="clip0_63_74">
<rect width="20" height="20" fill="white"/>
</clipPath>
</defs>
</svg>
